<svg width="550" height="495" viewBox="0 0 550 495" fill="none" xmlns="http://www.w3.org/2000/svg">
<g id="Home page " clip-path="url(#clip0_0_1)">
<rect width="550" height="495" fill="white"/>
<g id="Dark">
<g id="Light">
<path id="Light 1" d="M166.045 249.318C173.751 253.473 173.751 264.527 166.045 268.682L52.471 329.927C45.1423 333.879 36.25 328.572 36.25 320.245L36.25 197.755C36.25 189.428 45.1423 184.121 52.471 188.073L166.045 249.318Z" fill="#13E1BC" fill-opacity="0.7"/>
</g>
<g id="Dark 2" filter="url(#filter0_d_0_1)">
<path d="M165.795 248.992C173.501 253.147 173.501 264.201 165.795 268.356L52.221 329.601C44.8923 333.554 36 328.246 36 319.92L36 197.429C36 189.103 44.8923 183.795 52.221 187.747L165.795 248.992Z" fill="#363BA7" fill-opacity="0.7" shape-rendering="crispEdges"/>
</g>
<path id="Dark 1" d="M200.045 249.318C207.751 253.473 207.751 264.527 200.045 268.682L86.471 329.927C79.1423 333.879 70.25 328.572 70.25 320.245L70.25 197.755C70.25 189.428 79.1423 184.121 86.471 188.073L200.045 249.318Z" fill="#363BA7" fill-opacity="0.7"/>
</g>
</g>
<defs>
<filter id="filter0_d_0_1" x="32" y="186.414" width="143.574" height="152.521" filterUnits="userSpaceOnUse" color-interpolation-filters="sRGB">
<feFlood flood-opacity="0" result="BackgroundImageFix"/>
<feColorMatrix in="SourceAlpha" type="matrix" values="0 0 0 0 0 0 0 0 0 0 0 0 0 0 0 0 0 0 127 0" result="hardAlpha"/>
<feOffset dy="4"/>
<feGaussianBlur stdDeviation="2"/>
<feComposite in2="hardAlpha" operator="out"/>
<feColorMatrix type="matrix" values="0 0 0 0 0 0 0 0 0 0 0 0 0 0 0 0 0 0 0.25 0"/>
<feBlend mode="normal" in2="BackgroundImageFix" result="effect1_dropShadow_0_1"/>
<feBlend mode="normal" in="SourceGraphic" in2="effect1_dropShadow_0_1" result="shape"/>
</filter>
<clipPath id="clip0_0_1">
<rect width="550" height="495" fill="white"/>
</clipPath>
</defs>
</svg>
